# xmcd CD database file
#
# Track frame offsets:
#	150
#	25276
#	56852
#	91278
#	120829
#	170405
#	201080
#	241206
#	281182
#
# Disc length: 4204 seconds
#
# Revision: 3
# Processed by: cddbd v1.5.2PL0 Copyright (c) Steve Scherf et al.
# Submitted via: CDex 1.70beta2
#
DISCID=78106a09
DTITLE=Laboratorium - Anthology 1971-1988 [CD06 - Nogero)
DYEAR=2006
DGENRE=Jazz
TTITLE0=Nogero
TTITLE1=The Cellar Suite
TTITLE2=Blues For The Lady Graduate
TTITLE3=Duck's Furcoat
TTITLE4=Bee-Flight
TTITLE5=Nogero
TTITLE6=Dealer
TTITLE7=Spokojnie W Pulowerku
TTITLE8=Futro Z Kaczora
EXTD=YEAR: 2006
EXTT0=
EXTT1=
EXTT2=
EXTT3=
EXTT4=
EXTT5=
EXTT6=
EXTT7=
EXTT8=
PLAYORDER=
